{
    "asset" : {
        "generator" : "Khronos glTF Blender I/O v3.3.27",
        "version" : "2.0"
    },
    "scene" : 0,
    "scenes" : [
        {
            "name" : "Scene",
            "nodes" : [
                0,
                1,
                2,
                3,
                4,
                5,
                6,
                7,
                8
            ]
        }
    ],
    "nodes" : [
        {
            "mesh" : 0,
            "name" : "defaultMaterial",
            "rotation" : [
                0.7071068286895752,
                0,
                0,
                0.7071067094802856
            ],
            "translation" : [
                -0.0017391443252563477,
                0,
                0
            ]
        },
        {
            "mesh" : 1,
            "name" : "defaultMaterial.001",
            "rotation" : [
                0.7071068286895752,
                0,
                0,
                0.7071067094802856
            ],
            "translation" : [
                -0.0017391443252563477,
                0,
                0
            ]
        },
        {
            "mesh" : 2,
            "name" : "defaultMaterial.002",
            "rotation" : [
                0.7071068286895752,
                0,
                0,
                0.7071067094802856
            ],
            "translation" : [
                -0.0017391443252563477,
                0,
                0
            ]
        },
        {
            "mesh" : 3,
            "name" : "defaultMaterial.003",
            "rotation" : [
                0.7071068286895752,
                0,
                0,
                0.7071067094802856
            ],
            "translation" : [
                -0.0017391443252563477,
                0,
                0
            ]
        },
        {
            "mesh" : 4,
            "name" : "defaultMaterial.004",
            "rotation" : [
                0.7071068286895752,
                0,
                0,
                0.7071067094802856
            ],
            "translation" : [
                0.5272414684295654,
                0,
                0
            ]
        },
        {
            "mesh" : 5,
            "name" : "defaultMaterial.005",
            "rotation" : [
                0.7071068286895752,
                0,
                0,
                0.7071067094802856
            ],
            "translation" : [
                0.5272414684295654,
                0,
                0
            ]
        },
        {
            "mesh" : 6,
            "name" : "defaultMaterial.006",
            "rotation" : [
                0.7071068286895752,
                0,
                0,
                0.7071067094802856
            ],
            "translation" : [
                0.5272414684295654,
                0,
                0
            ]
        },
        {
            "mesh" : 7,
            "name" : "defaultMaterial.007",
            "rotation" : [
                0.7071068286895752,
                0,
                0,
                0.7071067094802856
            ],
            "translation" : [
                0.5272414684295654,
                0,
                0
            ]
        },
        {
            "mesh" : 8,
            "name" : "defaultMaterial.008",
            "rotation" : [
                0.7071068286895752,
                0,
                0,
                0.7071067094802856
            ],
            "translation" : [
                0.5272414684295654,
                0,
                0
            ]
        }
    ],
    "materials" : [
        {
            "doubleSided" : true,
            "name" : "Frame",
            "pbrMetallicRoughness" : {
                "baseColorFactor" : [
                    0.800000011920929,
                    0.800000011920929,
                    0.800000011920929,
                    1
                ],
                "metallicFactor" : 0,
                "roughnessFactor" : 0.5
            }
        },
        {
            "doubleSided" : true,
            "name" : "Metal",
            "pbrMetallicRoughness" : {
                "baseColorFactor" : [
                    0.800000011920929,
                    0.800000011920929,
                    0.800000011920929,
                    1
                ],
                "metallicFactor" : 0,
                "roughnessFactor" : 0.5
            }
        },
        {
            "doubleSided" : true,
            "name" : "Pano",
            "pbrMetallicRoughness" : {
                "baseColorFactor" : [
                    0.800000011920929,
                    0.800000011920929,
                    0.800000011920929,
                    1
                ],
                "metallicFactor" : 0,
                "roughnessFactor" : 0.5
            }
        }
    ],
    "meshes" : [
        {
            "name" : "defaultMaterial",
            "primitives" : [
                {
                    "attributes" : {
                        "POSITION" : 0,
                        "NORMAL" : 1,
                        "TEXCOORD_0" : 2
                    },
                    "indices" : 3,
                    "material" : 0
                }
            ]
        },
        {
            "name" : "defaultMaterial.001",
            "primitives" : [
                {
                    "attributes" : {
                        "POSITION" : 4,
                        "NORMAL" : 5,
                        "TEXCOORD_0" : 6
                    },
                    "indices" : 7,
                    "material" : 1
                }
            ]
        },
        {
            "name" : "defaultMaterial.002",
            "primitives" : [
                {
                    "attributes" : {
                        "POSITION" : 8,
                        "NORMAL" : 9,
                        "TEXCOORD_0" : 10
                    },
                    "indices" : 11,
                    "material" : 1
                }
            ]
        },
        {
            "name" : "defaultMaterial.003",
            "primitives" : [
                {
                    "attributes" : {
                        "POSITION" : 12,
                        "NORMAL" : 13,
                        "TEXCOORD_0" : 14
                    },
                    "indices" : 15,
                    "material" : 2
                }
            ]
        },
        {
            "name" : "defaultMaterial.004",
            "primitives" : [
                {
                    "attributes" : {
                        "POSITION" : 16,
                        "NORMAL" : 17,
                        "TEXCOORD_0" : 18
                    },
                    "indices" : 19,
                    "material" : 1
                }
            ]
        },
        {
            "name" : "defaultMaterial.005",
            "primitives" : [
                {
                    "attributes" : {
                        "POSITION" : 20,
                        "NORMAL" : 21,
                        "TEXCOORD_0" : 22
                    },
                    "indices" : 23,
                    "material" : 1
                }
            ]
        },
        {
            "name" : "defaultMaterial.006",
            "primitives" : [
                {
                    "attributes" : {
                        "POSITION" : 24,
                        "NORMAL" : 25,
                        "TEXCOORD_0" : 26
                    },
                    "indices" : 27,
                    "material" : 1
                }
            ]
        },
        {
            "name" : "defaultMaterial.007",
            "primitives" : [
                {
                    "attributes" : {
                        "POSITION" : 28,
                        "NORMAL" : 29,
                        "TEXCOORD_0" : 30
                    },
                    "indices" : 31,
                    "material" : 1
                }
            ]
        },
        {
            "name" : "defaultMaterial.008",
            "primitives" : [
                {
                    "attributes" : {
                        "POSITION" : 32,
                        "NORMAL" : 33,
                        "TEXCOORD_0" : 34
                    },
                    "indices" : 35,
                    "material" : 1
                }
            ]
        }
    ],
    "accessors" : [
        {
            "bufferView" : 0,
            "componentType" : 5126,
            "count" : 3170,
            "max" : [
                -0.0002119999990100041,
                0.12220899760723114,
                0
            ],
            "min" : [
                -0.9619280099868774,
                -0.12220899760723114,
                -2.051624059677124
            ],
            "type" : "VEC3"
        },
        {
            "bufferView" : 1,
            "componentType" : 5126,
            "count" : 3170,
            "type" : "VEC3"
        },
        {
            "bufferView" : 2,
            "componentType" : 5126,
            "count" : 3170,
            "type" : "VEC2"
        },
        {
            "bufferView" : 3,
            "componentType" : 5123,
            "count" : 6762,
            "type" : "SCALAR"
        },
        {
            "bufferView" : 4,
            "componentType" : 5126,
            "count" : 13307,
            "max" : [
                -0.0820230022072792,
                0.1255210041999817,
                -0.13766400516033173
            ],
            "min" : [
                -0.09476800262928009,
                0.08238299936056137,
                -1.8218419551849365
            ],
            "type" : "VEC3"
        },
        {
            "bufferView" : 5,
            "componentType" : 5126,
            "count" : 13307,
            "type" : "VEC3"
        },
        {
            "bufferView" : 6,
            "componentType" : 5126,
            "count" : 13307,
            "type" : "VEC2"
        },
        {
            "bufferView" : 7,
            "componentType" : 5123,
            "count" : 45804,
            "type" : "SCALAR"
        },
        {
            "bufferView" : 8,
            "componentType" : 5126,
            "count" : 14154,
            "max" : [
                -0.0820230022072792,
                0.1255200058221817,
                -0.13766400516033173
            ],
            "min" : [
                -0.09476900100708008,
                0.08238299936056137,
                -1.8218419551849365
            ],
            "type" : "VEC3"
        },
        {
            "bufferView" : 9,
            "componentType" : 5126,
            "count" : 14154,
            "type" : "VEC3"
        },
        {
            "bufferView" : 10,
            "componentType" : 5126,
            "count" : 14154,
            "type" : "VEC2"
        },
        {
            "bufferView" : 11,
            "componentType" : 5123,
            "count" : 44628,
            "type" : "SCALAR"
        },
        {
            "bufferView" : 12,
            "componentType" : 5126,
            "count" : 13487,
            "max" : [
                -0.0902319997549057,
                0.11130999773740768,
                -0.003978000022470951
            ],
            "min" : [
                -0.8747130036354065,
                0.07393799722194672,
                -1.961055040359497
            ],
            "type" : "VEC3"
        },
        {
            "bufferView" : 13,
            "componentType" : 5126,
            "count" : 13487,
            "type" : "VEC3"
        },
        {
            "bufferView" : 14,
            "componentType" : 5126,
            "count" : 13487,
            "type" : "VEC2"
        },
        {
            "bufferView" : 15,
            "componentType" : 5123,
            "count" : 53040,
            "type" : "SCALAR"
        },
        {
            "bufferView" : 16,
            "componentType" : 5126,
            "count" : 3044,
            "max" : [
                -0.7933970093727112,
                0.12323500216007233,
                -0.9018599987030029
            ],
            "min" : [
                -0.8521649837493896,
                0.06694699823856354,
                -0.9608870148658752
            ],
            "type" : "VEC3"
        },
        {
            "bufferView" : 17,
            "componentType" : 5126,
            "count" : 3044,
            "type" : "VEC3"
        },
        {
            "bufferView" : 18,
            "componentType" : 5126,
            "count" : 3044,
            "type" : "VEC2"
        },
        {
            "bufferView" : 19,
            "componentType" : 5123,
            "count" : 13824,
            "type" : "SCALAR"
        },
        {
            "bufferView" : 20,
            "componentType" : 5126,
            "count" : 7147,
            "max" : [
                -0.7209939956665039,
                0.1682550013065338,
                -0.9218609929084778
            ],
            "min" : [
                -0.8321080207824707,
                0.021922999992966652,
                -0.9422569870948792
            ],
            "type" : "VEC3"
        },
        {
            "bufferView" : 21,
            "componentType" : 5126,
            "count" : 7147,
            "type" : "VEC3"
        },
        {
            "bufferView" : 22,
            "componentType" : 5126,
            "count" : 7147,
            "type" : "VEC2"
        },
        {
            "bufferView" : 23,
            "componentType" : 5123,
            "count" : 28620,
            "type" : "SCALAR"
        },
        {
            "bufferView" : 24,
            "componentType" : 5126,
            "count" : 7921,
            "max" : [
                -0.874239981174469,
                0.10387899726629257,
                -0.9036239981651306
            ],
            "min" : [
                -0.8752880096435547,
                0.08124600350856781,
                -0.9591220021247864
            ],
            "type" : "VEC3"
        },
        {
            "bufferView" : 25,
            "componentType" : 5126,
            "count" : 7921,
            "type" : "VEC3"
        },
        {
            "bufferView" : 26,
            "componentType" : 5126,
            "count" : 7921,
            "type" : "VEC2"
        },
        {
            "bufferView" : 27,
            "componentType" : 5123,
            "count" : 11022,
            "type" : "SCALAR"
        },
        {
            "bufferView" : 28,
            "componentType" : 5126,
            "count" : 356,
            "max" : [
                -0.8741710186004639,
                0.09866499900817871,
                -0.9229260087013245
            ],
            "min" : [
                -0.8861150145530701,
                0.0862480029463768,
                -0.9395020008087158
            ],
            "type" : "VEC3"
        },
        {
            "bufferView" : 29,
            "componentType" : 5126,
            "count" : 356,
            "type" : "VEC3"
        },
        {
            "bufferView" : 30,
            "componentType" : 5126,
            "count" : 356,
            "type" : "VEC2"
        },
        {
            "bufferView" : 31,
            "componentType" : 5123,
            "count" : 1554,
            "type" : "SCALAR"
        },
        {
            "bufferView" : 32,
            "componentType" : 5126,
            "count" : 7660,
            "max" : [
                -0.8736850023269653,
                0.11325599998235703,
                -0.9036229848861694
            ],
            "min" : [
                -0.8753780126571655,
                0.07869499921798706,
                -0.9591220021247864
            ],
            "type" : "VEC3"
        },
        {
            "bufferView" : 33,
            "componentType" : 5126,
            "count" : 7660,
            "type" : "VEC3"
        },
        {
            "bufferView" : 34,
            "componentType" : 5126,
            "count" : 7660,
            "type" : "VEC2"
        },
        {
            "bufferView" : 35,
            "componentType" : 5123,
            "count" : 11796,
            "type" : "SCALAR"
        }
    ],
    "bufferViews" : [
        {
            "buffer" : 0,
            "byteLength" : 38040,
            "byteOffset" : 0,
            "target" : 34962
        },
        {
            "buffer" : 0,
            "byteLength" : 38040,
            "byteOffset" : 38040,
            "target" : 34962
        },
        {
            "buffer" : 0,
            "byteLength" : 25360,
            "byteOffset" : 76080,
            "target" : 34962
        },
        {
            "buffer" : 0,
            "byteLength" : 13524,
            "byteOffset" : 101440,
            "target" : 34963
        },
        {
            "buffer" : 0,
            "byteLength" : 159684,
            "byteOffset" : 114964,
            "target" : 34962
        },
        {
            "buffer" : 0,
            "byteLength" : 159684,
            "byteOffset" : 274648,
            "target" : 34962
        },
        {
            "buffer" : 0,
            "byteLength" : 106456,
            "byteOffset" : 434332,
            "target" : 34962
        },
        {
            "buffer" : 0,
            "byteLength" : 91608,
            "byteOffset" : 540788,
            "target" : 34963
        },
        {
            "buffer" : 0,
            "byteLength" : 169848,
            "byteOffset" : 632396,
            "target" : 34962
        },
        {
            "buffer" : 0,
            "byteLength" : 169848,
            "byteOffset" : 802244,
            "target" : 34962
        },
        {
            "buffer" : 0,
            "byteLength" : 113232,
            "byteOffset" : 972092,
            "target" : 34962
        },
        {
            "buffer" : 0,
            "byteLength" : 89256,
            "byteOffset" : 1085324,
            "target" : 34963
        },
        {
            "buffer" : 0,
            "byteLength" : 161844,
            "byteOffset" : 1174580,
            "target" : 34962
        },
        {
            "buffer" : 0,
            "byteLength" : 161844,
            "byteOffset" : 1336424,
            "target" : 34962
        },
        {
            "buffer" : 0,
            "byteLength" : 107896,
            "byteOffset" : 1498268,
            "target" : 34962
        },
        {
            "buffer" : 0,
            "byteLength" : 106080,
            "byteOffset" : 1606164,
            "target" : 34963
        },
        {
            "buffer" : 0,
            "byteLength" : 36528,
            "byteOffset" : 1712244,
            "target" : 34962
        },
        {
            "buffer" : 0,
            "byteLength" : 36528,
            "byteOffset" : 1748772,
            "target" : 34962
        },
        {
            "buffer" : 0,
            "byteLength" : 24352,
            "byteOffset" : 1785300,
            "target" : 34962
        },
        {
            "buffer" : 0,
            "byteLength" : 27648,
            "byteOffset" : 1809652,
            "target" : 34963
        },
        {
            "buffer" : 0,
            "byteLength" : 85764,
            "byteOffset" : 1837300,
            "target" : 34962
        },
        {
            "buffer" : 0,
            "byteLength" : 85764,
            "byteOffset" : 1923064,
            "target" : 34962
        },
        {
            "buffer" : 0,
            "byteLength" : 57176,
            "byteOffset" : 2008828,
            "target" : 34962
        },
        {
            "buffer" : 0,
            "byteLength" : 57240,
            "byteOffset" : 2066004,
            "target" : 34963
        },
        {
            "buffer" : 0,
            "byteLength" : 95052,
            "byteOffset" : 2123244,
            "target" : 34962
        },
        {
            "buffer" : 0,
            "byteLength" : 95052,
            "byteOffset" : 2218296,
            "target" : 34962
        },
        {
            "buffer" : 0,
            "byteLength" : 63368,
            "byteOffset" : 2313348,
            "target" : 34962
        },
        {
            "buffer" : 0,
            "byteLength" : 22044,
            "byteOffset" : 2376716,
            "target" : 34963
        },
        {
            "buffer" : 0,
            "byteLength" : 4272,
            "byteOffset" : 2398760,
            "target" : 34962
        },
        {
            "buffer" : 0,
            "byteLength" : 4272,
            "byteOffset" : 2403032,
            "target" : 34962
        },
        {
            "buffer" : 0,
            "byteLength" : 2848,
            "byteOffset" : 2407304,
            "target" : 34962
        },
        {
            "buffer" : 0,
            "byteLength" : 3108,
            "byteOffset" : 2410152,
            "target" : 34963
        },
        {
            "buffer" : 0,
            "byteLength" : 91920,
            "byteOffset" : 2413260,
            "target" : 34962
        },
        {
            "buffer" : 0,
            "byteLength" : 91920,
            "byteOffset" : 2505180,
            "target" : 34962
        },
        {
            "buffer" : 0,
            "byteLength" : 61280,
            "byteOffset" : 2597100,
            "target" : 34962
        },
        {
            "buffer" : 0,
            "byteLength" : 23592,
            "byteOffset" : 2658380,
            "target" : 34963
        }
    ],
    "buffers" : [
        {
            "byteLength" : 2681972,
            "uri" : "data:application/octet-stream;base64,"
        }
    ]
}
